<svg width="329" height="130" viewBox="0 0 329 130" fill="none" xmlns="http://www.w3.org/2000/svg">
<path d="M10.2083 33.366L65 1.73205L119.792 33.366V96.634L65 128.268L10.2083 96.634V33.366Z" fill="white" stroke="#FFA500" stroke-width="3"/>
<path d="M54.7606 86.325C54.7606 86.325 51.7812 88.0588 56.8837 88.6438C63.0662 89.35 66.2256 89.2488 73.0368 87.9613C73.0368 87.9613 74.8312 89.0832 77.3324 90.0557C62.0581 96.5994 42.7649 89.6763 54.7606 86.325ZM52.8931 77.7844C52.8931 77.7844 49.5506 80.2588 54.6574 80.7875C61.2618 81.4694 66.4762 81.525 75.5037 79.7875C75.5037 79.7875 76.7493 81.0532 78.7112 81.7444C60.2474 87.1444 39.6824 82.1694 52.8931 77.7844Z" fill="#0074BD"/>
<path d="M68.6263 63.2944C72.392 67.6287 67.6388 71.5256 67.6388 71.5256C67.6388 71.5256 77.1945 66.5937 72.807 60.415C68.7076 54.6556 65.5651 51.795 82.5788 41.9275C82.5788 41.9281 55.872 48.5962 68.6263 63.2944Z" fill="#EA2D2E"/>
<path d="M88.8268 92.6431C88.8268 92.6431 91.0324 94.4619 86.3968 95.8675C77.583 98.5375 49.7055 99.3425 41.963 95.9744C39.1811 94.7631 44.3999 93.0837 46.0418 92.7294C47.7536 92.3587 48.7311 92.4262 48.7311 92.4262C45.6355 90.2469 28.723 96.7075 40.1418 98.5606C71.2799 103.608 96.9024 96.2875 88.8268 92.6431ZM56.1949 68.9337C56.1949 68.9337 42.0161 72.3019 51.1743 73.5262C55.0418 74.0437 62.748 73.925 69.9311 73.3225C75.7999 72.8294 81.6893 71.7762 81.6893 71.7762C81.6893 71.7762 79.6218 72.6631 78.1243 73.6844C63.723 77.4725 35.9093 75.7081 43.9174 71.8356C50.6874 68.5612 56.1949 68.9337 56.1949 68.9337ZM81.6305 83.1506C96.2686 75.5462 89.4999 68.2381 84.7755 69.2225C83.6205 69.4631 83.1024 69.6725 83.1024 69.6725C83.1024 69.6725 83.5324 68.9981 84.3524 68.7081C93.698 65.4237 100.884 78.3975 81.338 83.5362C81.338 83.535 81.5624 83.3319 81.6305 83.1506Z" fill="#0074BD"/>
<path d="M72.8069 25.9919C72.8069 25.9919 80.9119 34.1019 65.1175 46.5688C52.4512 56.5726 62.2294 62.2751 65.1131 68.7932C57.7187 62.1226 52.295 56.2494 55.9331 50.7838C61.2756 42.7626 76.0762 38.8719 72.8069 25.9919Z" fill="#EA2D2E"/>
<path d="M57.6339 103.763C71.6814 104.661 93.2589 103.263 93.7695 96.6157C93.7695 96.6157 92.7876 99.1357 82.1589 101.135C70.1676 103.393 55.3751 103.129 46.6045 101.681C46.6045 101.682 48.4014 103.169 57.6339 103.763Z" fill="#0074BD"/>
<path d="M110.208 33.366L165 1.73205L219.792 33.366V96.634L165 128.268L110.208 96.634V33.366Z" fill="white" stroke="#3949AB" stroke-width="3"/>
<path d="M177.938 79.8875L179.513 89.0375C178.538 89.5625 176.963 90.05 174.863 90.5C172.725 90.9875 170.213 91.25 167.325 91.25C159.038 91.1 152.813 88.625 148.65 83.9C144.375 79.1375 142.35 73.1 142.35 65.7875C142.5 57.125 145.05 50.4875 150 45.8375C154.8 41.15 160.95 38.75 168.375 38.75C171.188 38.75 173.625 39.0125 175.65 39.4625C177.675 39.9125 179.175 40.4 180.15 40.9625L177.9 50.3L174 49.025C172.5 48.65 170.738 48.4625 168.75 48.4625C164.438 48.425 160.838 49.8125 158.025 52.5875C155.175 55.325 153.75 59.525 153.6 65.1125C153.638 70.2125 154.988 74.1875 157.65 77.1125C160.313 80 164.025 81.5 168.863 81.5375L173.85 81.0875C175.463 80.7875 176.813 80.375 177.938 79.8875Z" fill="#3949AB"/>
<path d="M209.208 33.366L264 1.73205L318.792 33.366V96.634L264 128.268L209.208 96.634V33.366Z" fill="white" stroke="#00599C" stroke-width="3"/>
<path d="M259.938 79.8875L261.513 89.0375C260.538 89.5625 258.963 90.05 256.863 90.5C254.725 90.9875 252.213 91.25 249.325 91.25C241.038 91.1 234.813 88.625 230.65 83.9C226.375 79.1375 224.35 73.1 224.35 65.7875C224.5 57.125 227.05 50.4875 232 45.8375C236.8 41.15 242.95 38.75 250.375 38.75C253.188 38.75 255.625 39.0125 257.65 39.4625C259.675 39.9125 261.175 40.4 262.15 40.9625L259.9 50.3L256 49.025C254.5 48.65 252.738 48.4625 250.75 48.4625C246.438 48.425 242.838 49.8125 240.025 52.5875C237.175 55.325 235.75 59.525 235.6 65.1125C235.638 70.2125 236.988 74.1875 239.65 77.1125C242.313 80 246.025 81.5 250.863 81.5375L255.85 81.0875C257.463 80.7875 258.813 80.375 259.938 79.8875Z" fill="#00599C"/>
<path d="M282 66.3307H275.333V72.9974C275.333 73.351 275.193 73.6902 274.943 73.9402C274.693 74.1903 274.354 74.3307 274 74.3307C273.646 74.3307 273.307 74.1903 273.057 73.9402C272.807 73.6902 272.667 73.351 272.667 72.9974V66.3307H266C265.646 66.3307 265.307 66.1903 265.057 65.9402C264.807 65.6902 264.667 65.351 264.667 64.9974C264.667 64.6438 264.807 64.3046 265.057 64.0546C265.307 63.8045 265.646 63.6641 266 63.6641H272.667V56.9974C272.667 56.6438 272.807 56.3046 273.057 56.0546C273.307 55.8045 273.646 55.6641 274 55.6641C274.354 55.6641 274.693 55.8045 274.943 56.0546C275.193 56.3046 275.333 56.6438 275.333 56.9974V63.6641H282C282.354 63.6641 282.693 63.8045 282.943 64.0546C283.193 64.3046 283.333 64.6438 283.333 64.9974C283.333 65.351 283.193 65.6902 282.943 65.9402C282.693 66.1903 282.354 66.3307 282 66.3307Z" fill="#00599C"/>
<path d="M305 66.3307H298.333V72.9974C298.333 73.351 298.193 73.6902 297.943 73.9402C297.693 74.1903 297.354 74.3307 297 74.3307C296.646 74.3307 296.307 74.1903 296.057 73.9402C295.807 73.6902 295.667 73.351 295.667 72.9974V66.3307H289C288.646 66.3307 288.307 66.1903 288.057 65.9402C287.807 65.6902 287.667 65.351 287.667 64.9974C287.667 64.6438 287.807 64.3046 288.057 64.0546C288.307 63.8045 288.646 63.6641 289 63.6641H295.667V56.9974C295.667 56.6438 295.807 56.3046 296.057 56.0546C296.307 55.8045 296.646 55.6641 297 55.6641C297.354 55.6641 297.693 55.8045 297.943 56.0546C298.193 56.3046 298.333 56.6438 298.333 56.9974V63.6641H305C305.354 63.6641 305.693 63.8045 305.943 64.0546C306.193 64.3046 306.333 64.6438 306.333 64.9974C306.333 65.351 306.193 65.6902 305.943 65.9402C305.693 66.1903 305.354 66.3307 305 66.3307Z" fill="#00599C"/>
</svg>
